<svg width="241" height="241" viewBox="0 0 241 241" fill="none" xmlns="http://www.w3.org/2000/svg">
<path d="M19.8901 120.228C19.8901 145.688 30.0044 170.106 48.0079 188.11C66.0114 206.113 90.4294 216.228 115.89 216.228C141.351 216.228 165.769 206.113 183.772 188.11C201.776 170.106 211.89 145.688 211.89 120.228C211.89 94.7668 201.776 70.3488 183.772 52.3453C165.769 34.3418 141.351 24.2275 115.89 24.2275C90.4294 24.2275 66.0114 34.3418 48.0079 52.3453C30.0044 70.3488 19.8901 94.7668 19.8901 120.228Z" fill="#D9EDFF"/>
<path d="M161.166 180.962H71.6462C70.0435 180.962 68.5064 180.325 67.373 179.192C66.2397 178.059 65.603 176.522 65.603 174.919V59.0275C65.603 57.3567 66.2668 55.7542 67.4483 54.5728C68.6297 53.3913 70.2322 52.7275 71.903 52.7275H160.895C162.566 52.7275 164.168 53.3913 165.35 54.5728C166.531 55.7542 167.195 57.3567 167.195 59.0275V174.919C167.196 176.519 166.561 178.054 165.431 179.188C164.3 180.321 162.767 180.959 161.166 180.962Z" fill="#B0D9FF"/>
<path d="M161.166 180.962H71.6462C70.0435 180.962 68.5064 180.325 67.373 179.192C66.2397 178.059 65.603 176.522 65.603 174.919V59.0275C65.603 57.3567 66.2668 55.7542 67.4483 54.5728C68.6297 53.3913 70.2322 52.7275 71.903 52.7275H160.895C162.566 52.7275 164.168 53.3913 165.35 54.5728C166.531 55.7542 167.195 57.3567 167.195 59.0275V174.919C167.196 176.519 166.561 178.054 165.431 179.188C164.3 180.321 162.767 180.959 161.166 180.962Z" stroke="#020064" stroke-width="2.4" stroke-linecap="round" stroke-linejoin="round"/>
<path d="M75.5991 62.7163H157.204V170.968H75.5991V62.7163Z" fill="white"/>
<path d="M157.204 99.801L133.506 125.481C132.012 127.105 131.223 129.255 131.313 131.46C131.403 133.665 132.364 135.744 133.986 137.241C135.004 138.179 136.242 138.845 137.586 139.175L129.882 146.882L131.061 148.06L120.654 158.464C120.188 158.928 119.87 159.519 119.739 160.163C119.608 160.808 119.67 161.476 119.918 162.085C120.165 162.694 120.588 163.217 121.131 163.586C121.675 163.956 122.315 164.157 122.973 164.164C123.215 164.164 123.456 164.139 123.693 164.09C132.813 162.151 137.452 159.35 137.505 155.755L138.133 155.123L140.49 157.48L146.286 151.667C146.697 151.996 147.137 152.286 147.601 152.534C149.134 153.35 150.883 153.666 152.605 153.439C154.326 153.212 155.933 152.452 157.201 151.267L157.204 99.801Z" fill="#B0D9FF"/>
<path d="M75.5991 62.7163H157.204V170.968H75.5991V62.7163Z" stroke="#020064" stroke-width="2.4" stroke-linecap="round" stroke-linejoin="round"/>
<path d="M87.2319 89.3635H138.119" stroke="#020064" stroke-width="2.4" stroke-linecap="round" stroke-linejoin="round"/>
<path d="M87.2319 104.352H138.119" stroke="#020064" stroke-width="2.4" stroke-linecap="round" stroke-linejoin="round"/>
<path d="M87.2319 121.008H122.699" stroke="#020064" stroke-width="2.4" stroke-linecap="round" stroke-linejoin="round"/>
<path d="M93.6085 47.7283H139.194C139.994 47.7308 140.76 48.0503 141.325 48.6167C141.889 49.1831 142.206 49.9502 142.206 50.7499V66.3499C142.206 67.1519 141.888 67.9211 141.32 68.4882C140.753 69.0553 139.984 69.3739 139.182 69.3739H93.6109C92.8089 69.3739 92.0397 69.0553 91.4726 68.4882C90.9055 67.9211 90.5869 67.1519 90.5869 66.3499V50.7499C90.5869 49.9485 90.9053 49.1799 91.4719 48.6133C92.0386 48.0466 92.8071 47.7283 93.6085 47.7283Z" fill="white"/>
<path d="M93.6085 47.7283H139.194C139.994 47.7308 140.76 48.0503 141.325 48.6167C141.889 49.1831 142.206 49.9502 142.206 50.7499V66.3499C142.206 67.1519 141.888 67.9211 141.32 68.4882C140.753 69.0553 139.984 69.3739 139.182 69.3739H93.6109C92.8089 69.3739 92.0397 69.0553 91.4726 68.4882C90.9055 67.9211 90.5869 67.1519 90.5869 66.3499V50.7499C90.5869 49.9485 90.9053 49.1799 91.4719 48.6133C92.0386 48.0466 92.8071 47.7283 93.6085 47.7283Z" stroke="#020064" stroke-width="2.4" stroke-linecap="round" stroke-linejoin="round"/>
<path d="M102.244 62.7163H130.556" stroke="#020064" stroke-width="2.4" stroke-linecap="round" stroke-linejoin="round"/>
<path d="M108.906 46.0629C108.906 47.1565 109.122 48.2394 109.54 49.2498C109.959 50.2602 110.572 51.1783 111.345 51.9516C112.119 52.725 113.037 53.3384 114.047 53.7569C115.058 54.1755 116.141 54.3909 117.234 54.3909C118.328 54.3909 119.411 54.1755 120.421 53.7569C121.432 53.3384 122.35 52.725 123.123 51.9516C123.896 51.1783 124.51 50.2602 124.928 49.2498C125.347 48.2394 125.562 47.1565 125.562 46.0629C125.562 44.9692 125.347 43.8863 124.928 42.8759C124.51 41.8655 123.896 40.9474 123.123 40.1741C122.35 39.4007 121.432 38.7873 120.421 38.3688C119.411 37.9503 118.328 37.7349 117.234 37.7349C116.141 37.7349 115.058 37.9503 114.047 38.3688C113.037 38.7873 112.119 39.4007 111.345 40.1741C110.572 40.9474 109.959 41.8655 109.54 42.8759C109.122 43.8863 108.906 44.9692 108.906 46.0629Z" fill="white"/>
<path d="M108.906 46.0629C108.906 47.1565 109.122 48.2394 109.54 49.2498C109.959 50.2602 110.572 51.1783 111.345 51.9516C112.119 52.725 113.037 53.3384 114.047 53.7569C115.058 54.1755 116.141 54.3909 117.234 54.3909C118.328 54.3909 119.411 54.1755 120.421 53.7569C121.432 53.3384 122.35 52.725 123.123 51.9516C123.896 51.1783 124.51 50.2602 124.928 49.2498C125.347 48.2394 125.562 47.1565 125.562 46.0629C125.562 44.9692 125.347 43.8863 124.928 42.8759C124.51 41.8655 123.896 40.9474 123.123 40.1741C122.35 39.4007 121.432 38.7873 120.421 38.3688C119.411 37.9503 118.328 37.7349 117.234 37.7349C116.141 37.7349 115.058 37.9503 114.047 38.3688C113.037 38.7873 112.119 39.4007 111.345 40.1741C110.572 40.9474 109.959 41.8655 109.54 42.8759C109.122 43.8863 108.906 44.9692 108.906 46.0629Z" stroke="#020064" stroke-width="2.4" stroke-linecap="round" stroke-linejoin="round"/>
<path d="M151.463 119.971L180.635 130.852L192.906 111.172L161.188 102.607L151.463 119.971Z" fill="#D9EDFF"/>
<path d="M197.97 153.177L220.564 130.583C220.652 130.498 220.745 130.418 220.842 130.344C213.28 123.782 211.415 109.881 196.871 102.288C177.726 92.2891 154.048 94.6747 133.249 120.648C132.773 121.213 132.414 121.867 132.194 122.573C131.974 123.279 131.897 124.021 131.968 124.757C132.038 125.492 132.255 126.207 132.605 126.858C132.955 127.509 133.431 128.083 134.006 128.548C134.58 129.013 135.242 129.358 135.952 129.564C136.662 129.769 137.406 129.831 138.14 129.746C138.874 129.661 139.584 129.43 140.228 129.067C140.871 128.703 141.436 128.216 141.889 127.631C143.268 125.926 144.654 124.338 146.046 122.867C146.535 123.39 147.121 123.812 147.772 124.111C169.532 140.587 173.932 142.679 179.255 144.751C187.487 147.95 191.12 149.495 197.173 154.975C197.21 154.298 197.493 153.659 197.97 153.177ZM183.061 118.01C181.228 120.228 178.676 121.736 175.849 122.273C173.021 122.809 170.095 122.34 167.576 120.948L154.708 115.063C162.217 109.567 169.794 107.272 177.34 108.256C183.76 109.082 185.245 114.76 183.061 118.01Z" fill="white"/>
<path d="M79.7485 200.244C79.7485 201.349 83.5538 202.408 90.3271 203.19C97.1005 203.971 106.287 204.41 115.866 204.41C125.445 204.41 134.632 203.971 141.405 203.19C148.179 202.408 151.984 201.349 151.984 200.244C151.984 199.139 148.179 198.079 141.405 197.297C134.632 196.516 125.445 196.077 115.866 196.077C106.287 196.077 97.1005 196.516 90.3271 197.297C83.5538 198.079 79.7485 199.139 79.7485 200.244Z" fill="#B0D9FF"/>
<path d="M92.3151 138.314C91.454 139.174 90.8185 140.234 90.4648 141.399C90.1111 142.564 90.0502 143.798 90.2874 144.992C90.5247 146.186 91.0527 147.303 91.8249 148.244C92.597 149.185 93.5894 149.921 94.714 150.387C95.8386 150.853 97.0608 151.035 98.2723 150.915C99.4838 150.796 100.647 150.38 101.659 149.704C102.672 149.027 103.501 148.112 104.075 147.038C104.649 145.964 104.949 144.766 104.949 143.548V145.027C104.933 145.814 105.074 146.597 105.365 147.33C105.655 148.062 106.089 148.729 106.64 149.292C107.192 149.855 107.85 150.302 108.576 150.607C109.303 150.912 110.083 151.069 110.871 151.069C111.659 151.069 112.439 150.912 113.165 150.607C113.891 150.302 114.55 149.855 115.101 149.292C115.652 148.729 116.086 148.062 116.377 147.33C116.667 146.597 116.809 145.814 116.793 145.027C116.793 146.597 117.417 148.103 118.527 149.213C119.637 150.324 121.143 150.948 122.714 150.948H127.154" stroke="#020064" stroke-width="2.4" stroke-linecap="round" stroke-linejoin="round"/>
<path d="M165.752 122.241C166.481 122.28 167.196 122.462 167.854 122.777C168.513 123.092 169.103 123.534 169.591 124.077C170.079 124.62 170.455 125.254 170.697 125.943C170.94 126.631 171.045 127.361 171.006 128.09L170.029 146.123C169.99 146.852 169.807 147.566 169.491 148.224C169.176 148.882 168.734 149.472 168.191 149.959C167.648 150.446 167.014 150.822 166.325 151.064C165.637 151.306 164.908 151.411 164.179 151.371C163.45 151.332 162.737 151.149 162.079 150.833C161.421 150.518 160.831 150.076 160.344 149.533C159.856 148.99 159.481 148.356 159.239 147.667C158.996 146.979 158.892 146.25 158.932 145.521L159.908 127.49C159.988 126.019 160.648 124.64 161.744 123.656C162.84 122.671 164.281 122.163 165.752 122.241Z" fill="#D9EDFF" stroke="#020064" stroke-width="2.4" stroke-linecap="round" stroke-linejoin="round"/>
<path d="M160.012 120.508C161.312 121.201 162.284 122.383 162.714 123.792C163.144 125.202 162.996 126.724 162.304 128.025L155.673 140.932C154.98 142.233 153.799 143.205 152.389 143.635C150.979 144.065 149.457 143.917 148.156 143.224C146.855 142.531 145.883 141.35 145.453 139.941C145.023 138.531 145.171 137.008 145.864 135.707L152.495 122.8C153.188 121.5 154.369 120.528 155.779 120.098C157.188 119.668 158.711 119.816 160.012 120.508Z" fill="#D9EDFF" stroke="#020064" stroke-width="2.4" stroke-linecap="round" stroke-linejoin="round"/>
<path d="M220.564 130.583C220.652 130.498 220.745 130.418 220.842 130.344C213.28 123.782 211.415 109.881 196.871 102.288C177.726 92.2891 154.048 94.6747 133.249 120.648C132.773 121.213 132.414 121.867 132.194 122.573C131.974 123.279 131.897 124.021 131.968 124.757C132.038 125.492 132.255 126.207 132.605 126.858C132.955 127.509 133.431 128.083 134.006 128.548C134.58 129.013 135.242 129.358 135.952 129.564C136.662 129.769 137.406 129.831 138.14 129.746C138.874 129.661 139.584 129.43 140.228 129.067C140.871 128.703 141.436 128.216 141.889 127.631C143.268 125.926 144.654 124.338 146.046 122.867C146.535 123.39 147.121 123.812 147.772 124.111C169.532 140.587 173.932 142.679 179.255 144.751C187.487 147.95 191.12 149.495 197.173 154.975M183.071 118.015C181.236 120.235 178.683 121.743 175.853 122.279C173.023 122.814 170.095 122.343 167.576 120.948L154.708 115.063C162.217 109.567 169.794 107.272 177.34 108.256C183.76 109.082 185.245 114.76 183.061 118.01L183.071 118.015Z" stroke="#020064" stroke-width="2.4" stroke-linecap="round" stroke-linejoin="round"/>
<path d="M178.25 119.114L171.006 108.921L193.566 92.8963C194.173 92.4651 194.859 92.1576 195.585 91.9915C196.311 91.8254 197.062 91.8039 197.797 91.9283C198.531 92.0526 199.233 92.3204 199.864 92.7163C200.494 93.1122 201.041 93.6284 201.472 94.2355L202.146 95.1835C202.578 95.7905 202.885 96.4765 203.051 97.2024C203.217 97.9282 203.239 98.6796 203.114 99.4138C202.99 100.148 202.722 100.85 202.326 101.481C201.931 102.112 201.414 102.658 200.807 103.089L178.25 119.114Z" fill="#B0D9FF"/>
<path d="M178.25 119.114L171.006 108.921L193.566 92.8963C194.173 92.4651 194.859 92.1576 195.585 91.9915C196.311 91.8254 197.062 91.8039 197.797 91.9283C198.531 92.0526 199.233 92.3204 199.864 92.7163C200.494 93.1122 201.041 93.6284 201.472 94.2355L202.146 95.1835C202.578 95.7905 202.885 96.4765 203.051 97.2024C203.217 97.9282 203.239 98.6796 203.114 99.4138C202.99 100.148 202.722 100.85 202.326 101.481C201.931 102.112 201.414 102.658 200.807 103.089L178.25 119.114Z" stroke="#020064" stroke-width="2.4" stroke-linecap="round" stroke-linejoin="round"/>
<path d="M171.993 103.111L187.849 91.8475C188.291 91.5191 188.795 91.2834 189.331 91.1548C189.866 91.0262 190.422 91.0073 190.965 91.0993C191.508 91.1912 192.026 91.3921 192.489 91.6898C192.953 91.9875 193.351 92.3759 193.66 92.8315" stroke="#020064" stroke-width="2.4" stroke-linecap="round" stroke-linejoin="round"/>
<path d="M135.536 137.527L124.398 145.447C124.152 145.618 123.968 145.865 123.874 146.149C123.779 146.434 123.78 146.741 123.875 147.026C123.97 147.31 124.155 147.556 124.401 147.726C124.648 147.897 124.943 147.983 125.243 147.972C129.913 147.78 136.588 146.932 136.489 143.673L138.755 142.065L135.536 137.527Z" fill="#B0D9FF" stroke="#020064" stroke-width="2.4" stroke-linecap="round" stroke-linejoin="round"/>
<path d="M139.566 143.191L135.544 137.527C135.331 137.226 135.246 136.854 135.307 136.49C135.369 136.127 135.572 135.803 135.873 135.59L141.534 131.568L147.167 139.488L141.486 143.508C141.188 143.717 140.82 143.801 140.461 143.741C140.102 143.682 139.781 143.484 139.566 143.191Z" fill="white"/>
<path d="M139.566 143.191L135.544 137.527C135.331 137.226 135.246 136.854 135.307 136.49C135.369 136.127 135.572 135.803 135.873 135.59L141.534 131.568L147.167 139.488L141.486 143.508C141.188 143.717 140.82 143.801 140.461 143.741C140.102 143.682 139.781 143.484 139.566 143.191Z" stroke="#020064" stroke-width="2.4" stroke-linecap="round" stroke-linejoin="round"/>
<path d="M146.356 138.362L142.333 132.708C142.122 132.41 141.971 132.074 141.89 131.719C141.808 131.363 141.797 130.995 141.858 130.635C141.919 130.275 142.05 129.931 142.244 129.622C142.438 129.313 142.691 129.045 142.989 128.834L171.006 108.921L178.247 119.114L150.229 139.02C149.932 139.231 149.596 139.382 149.24 139.463C148.884 139.544 148.516 139.555 148.156 139.494C147.797 139.433 147.452 139.301 147.143 139.107C146.834 138.913 146.567 138.66 146.356 138.362Z" fill="#B0D9FF"/>
<path d="M146.356 138.362L142.333 132.708C142.122 132.41 141.971 132.074 141.89 131.719C141.808 131.363 141.797 130.995 141.858 130.635C141.919 130.275 142.05 129.931 142.244 129.622C142.438 129.313 142.691 129.045 142.989 128.834L171.006 108.921L178.247 119.114L150.229 139.02C149.932 139.231 149.596 139.382 149.24 139.463C148.884 139.544 148.516 139.555 148.156 139.494C147.797 139.433 147.452 139.301 147.143 139.107C146.834 138.913 146.567 138.66 146.356 138.362Z" stroke="#020064" stroke-width="2.4" stroke-linecap="round" stroke-linejoin="round"/>
<path d="M183.062 118.01C181.228 120.228 178.677 121.736 175.849 122.273C173.022 122.809 170.095 122.34 167.577 120.948L152.385 113.988C151.719 113.671 150.997 113.49 150.261 113.455C149.525 113.419 148.789 113.531 148.096 113.783C147.404 114.035 146.768 114.422 146.226 114.922C145.685 115.422 145.248 116.025 144.941 116.695C144.635 117.366 144.465 118.09 144.441 118.827C144.417 119.563 144.54 120.298 144.802 120.986C145.065 121.675 145.462 122.305 145.97 122.839C146.478 123.373 147.087 123.8 147.762 124.096C169.523 140.575 173.922 142.665 179.246 144.736" fill="white"/>
<path d="M183.062 118.01C181.228 120.228 178.677 121.736 175.849 122.273C173.022 122.809 170.095 122.34 167.577 120.948L152.385 113.988C151.719 113.671 150.997 113.49 150.261 113.455C149.525 113.419 148.789 113.531 148.096 113.783C147.404 114.035 146.768 114.422 146.226 114.922C145.685 115.422 145.248 116.025 144.941 116.695C144.635 117.366 144.465 118.09 144.441 118.827C144.417 119.563 144.54 120.298 144.802 120.986C145.065 121.675 145.462 122.305 145.97 122.839C146.478 123.373 147.087 123.8 147.762 124.096C169.523 140.575 173.922 142.665 179.246 144.736" stroke="#020064" stroke-width="2.4" stroke-linecap="round" stroke-linejoin="round"/>
<path d="M183.062 118.01C181.228 120.228 178.677 121.736 175.849 122.273C173.022 122.809 170.095 122.34 167.577 120.948L152.385 113.988C151.719 113.671 150.997 113.49 150.261 113.455C149.525 113.419 148.789 113.531 148.096 113.783C147.404 114.035 146.768 114.422 146.226 114.922C145.685 115.422 145.248 116.025 144.941 116.695C144.635 117.366 144.465 118.09 144.441 118.827C144.417 119.563 144.54 120.298 144.802 120.986C145.065 121.675 145.462 122.305 145.97 122.839C146.478 123.373 147.087 123.8 147.762 124.096C169.523 140.575 173.922 142.665 179.246 144.736" fill="white"/>
<path d="M183.062 118.01C181.228 120.228 178.677 121.736 175.849 122.273C173.022 122.809 170.095 122.34 167.577 120.948L152.385 113.988C151.719 113.671 150.997 113.49 150.261 113.455C149.525 113.419 148.789 113.531 148.096 113.783C147.404 114.035 146.768 114.422 146.226 114.922C145.685 115.422 145.248 116.025 144.941 116.695C144.635 117.366 144.465 118.09 144.441 118.827C144.417 119.563 144.54 120.298 144.802 120.986C145.065 121.675 145.462 122.305 145.97 122.839C146.478 123.373 147.087 123.8 147.762 124.096C169.523 140.575 173.922 142.665 179.246 144.736" stroke="#020064" stroke-width="2.4" stroke-linecap="round" stroke-linejoin="round"/>
</svg>
